<mxfile host="app.diagrams.net" modified="2024-04-24T09:31:06.940Z" agent="Mozilla/5.0 (Windows NT 10.0; Win64; x64) AppleWebKit/537.36 (KHTML, like Gecko) Chrome/124.0.0.0 Safari/537.36 Edg/124.0.0.0" etag="_M1gOg3uIb29-OZubHrl" version="24.2.8" type="device">
  <diagram name="Page-1" id="-ytFDbNo04cVuJut453g">
    <mxGraphModel dx="1002" dy="569" grid="1" gridSize="10" guides="1" tooltips="1" connect="1" arrows="1" fold="1" page="1" pageScale="1" pageWidth="850" pageHeight="1100" math="0" shadow="0">
      <root>
        <mxCell id="0" />
        <mxCell id="1" parent="0" />
        <mxCell id="f2vlSJQ31SEcd-mLACnH-1" value="Registered user" style="rounded=1;whiteSpace=wrap;html=1;" vertex="1" parent="1">
          <mxGeometry x="610" y="20" width="120" height="60" as="geometry" />
        </mxCell>
        <mxCell id="f2vlSJQ31SEcd-mLACnH-2" value="Enter user id &amp;amp; password" style="rounded=1;whiteSpace=wrap;html=1;" vertex="1" parent="1">
          <mxGeometry x="610" y="90" width="120" height="60" as="geometry" />
        </mxCell>
        <mxCell id="f2vlSJQ31SEcd-mLACnH-3" value="Log in SUCCESSFULL" style="rounded=1;whiteSpace=wrap;html=1;" vertex="1" parent="1">
          <mxGeometry x="610" y="160" width="120" height="60" as="geometry" />
        </mxCell>
        <mxCell id="f2vlSJQ31SEcd-mLACnH-4" value="" style="endArrow=none;html=1;rounded=0;" edge="1" parent="1" source="f2vlSJQ31SEcd-mLACnH-2" target="f2vlSJQ31SEcd-mLACnH-1">
          <mxGeometry width="50" height="50" relative="1" as="geometry">
            <mxPoint x="820" y="240" as="sourcePoint" />
            <mxPoint x="870" y="190" as="targetPoint" />
          </mxGeometry>
        </mxCell>
        <mxCell id="f2vlSJQ31SEcd-mLACnH-5" value="" style="endArrow=none;html=1;rounded=0;exitX=0.5;exitY=1;exitDx=0;exitDy=0;entryX=0.5;entryY=0;entryDx=0;entryDy=0;" edge="1" parent="1" source="f2vlSJQ31SEcd-mLACnH-2" target="f2vlSJQ31SEcd-mLACnH-3">
          <mxGeometry width="50" height="50" relative="1" as="geometry">
            <mxPoint x="820" y="240" as="sourcePoint" />
            <mxPoint x="870" y="190" as="targetPoint" />
          </mxGeometry>
        </mxCell>
        <mxCell id="f2vlSJQ31SEcd-mLACnH-8" style="edgeStyle=orthogonalEdgeStyle;rounded=0;orthogonalLoop=1;jettySize=auto;html=1;exitX=0;exitY=0.5;exitDx=0;exitDy=0;" edge="1" parent="1" source="f2vlSJQ31SEcd-mLACnH-2">
          <mxGeometry relative="1" as="geometry">
            <mxPoint x="589" y="120" as="targetPoint" />
          </mxGeometry>
        </mxCell>
        <mxCell id="f2vlSJQ31SEcd-mLACnH-6" value="Database" style="rounded=1;whiteSpace=wrap;html=1;" vertex="1" parent="1">
          <mxGeometry x="470" y="90" width="120" height="60" as="geometry" />
        </mxCell>
        <mxCell id="f2vlSJQ31SEcd-mLACnH-11" value="If CORRECT" style="text;html=1;align=center;verticalAlign=middle;resizable=0;points=[];autosize=1;strokeColor=none;fillColor=none;" vertex="1" parent="1">
          <mxGeometry x="470" y="175" width="90" height="30" as="geometry" />
        </mxCell>
        <mxCell id="f2vlSJQ31SEcd-mLACnH-12" style="edgeStyle=orthogonalEdgeStyle;rounded=0;orthogonalLoop=1;jettySize=auto;html=1;exitX=0.5;exitY=1;exitDx=0;exitDy=0;entryX=0.547;entryY=-0.02;entryDx=0;entryDy=0;entryPerimeter=0;" edge="1" parent="1" source="f2vlSJQ31SEcd-mLACnH-6" target="f2vlSJQ31SEcd-mLACnH-11">
          <mxGeometry relative="1" as="geometry" />
        </mxCell>
        <mxCell id="f2vlSJQ31SEcd-mLACnH-13" value="" style="endArrow=classic;html=1;rounded=0;" edge="1" parent="1" source="f2vlSJQ31SEcd-mLACnH-11" target="f2vlSJQ31SEcd-mLACnH-3">
          <mxGeometry width="50" height="50" relative="1" as="geometry">
            <mxPoint x="800" y="250" as="sourcePoint" />
            <mxPoint x="850" y="200" as="targetPoint" />
          </mxGeometry>
        </mxCell>
        <mxCell id="f2vlSJQ31SEcd-mLACnH-14" value="NOT CORRECT" style="text;html=1;align=center;verticalAlign=middle;resizable=0;points=[];autosize=1;strokeColor=none;fillColor=none;" vertex="1" parent="1">
          <mxGeometry x="470" y="40" width="110" height="30" as="geometry" />
        </mxCell>
        <mxCell id="f2vlSJQ31SEcd-mLACnH-15" value="" style="endArrow=classic;html=1;rounded=0;exitX=0.5;exitY=0;exitDx=0;exitDy=0;" edge="1" parent="1" source="f2vlSJQ31SEcd-mLACnH-6">
          <mxGeometry width="50" height="50" relative="1" as="geometry">
            <mxPoint x="517" y="89" as="sourcePoint" />
            <mxPoint x="530" y="60" as="targetPoint" />
          </mxGeometry>
        </mxCell>
        <mxCell id="f2vlSJQ31SEcd-mLACnH-16" value="" style="endArrow=classic;html=1;rounded=0;" edge="1" parent="1" source="f2vlSJQ31SEcd-mLACnH-14" target="f2vlSJQ31SEcd-mLACnH-1">
          <mxGeometry width="50" height="50" relative="1" as="geometry">
            <mxPoint x="800" y="250" as="sourcePoint" />
            <mxPoint x="850" y="200" as="targetPoint" />
          </mxGeometry>
        </mxCell>
        <mxCell id="f2vlSJQ31SEcd-mLACnH-25" value="" style="edgeStyle=orthogonalEdgeStyle;rounded=0;orthogonalLoop=1;jettySize=auto;html=1;exitX=0;exitY=0.25;exitDx=0;exitDy=0;" edge="1" parent="1" source="f2vlSJQ31SEcd-mLACnH-1" target="f2vlSJQ31SEcd-mLACnH-22">
          <mxGeometry relative="1" as="geometry">
            <mxPoint x="250" y="90" as="targetPoint" />
            <mxPoint x="610" y="35" as="sourcePoint" />
          </mxGeometry>
        </mxCell>
        <mxCell id="f2vlSJQ31SEcd-mLACnH-27" style="edgeStyle=orthogonalEdgeStyle;rounded=0;orthogonalLoop=1;jettySize=auto;html=1;" edge="1" parent="1" source="f2vlSJQ31SEcd-mLACnH-22">
          <mxGeometry relative="1" as="geometry">
            <mxPoint x="290" y="60" as="targetPoint" />
          </mxGeometry>
        </mxCell>
        <mxCell id="f2vlSJQ31SEcd-mLACnH-22" value="FORGOT&amp;nbsp; PASSWORD" style="text;html=1;align=center;verticalAlign=middle;resizable=0;points=[];autosize=1;strokeColor=none;fillColor=none;" vertex="1" parent="1">
          <mxGeometry x="320" y="20" width="150" height="30" as="geometry" />
        </mxCell>
        <mxCell id="f2vlSJQ31SEcd-mLACnH-28" value="ENTER USER ID" style="text;html=1;align=center;verticalAlign=middle;resizable=0;points=[];autosize=1;strokeColor=none;fillColor=none;" vertex="1" parent="1">
          <mxGeometry x="235" y="60" width="120" height="30" as="geometry" />
        </mxCell>
        <mxCell id="f2vlSJQ31SEcd-mLACnH-29" style="edgeStyle=orthogonalEdgeStyle;rounded=0;orthogonalLoop=1;jettySize=auto;html=1;entryX=0.083;entryY=0;entryDx=0;entryDy=0;entryPerimeter=0;" edge="1" parent="1" source="f2vlSJQ31SEcd-mLACnH-28" target="f2vlSJQ31SEcd-mLACnH-6">
          <mxGeometry relative="1" as="geometry" />
        </mxCell>
        <mxCell id="f2vlSJQ31SEcd-mLACnH-30" value="ENTER OTP" style="text;html=1;align=center;verticalAlign=middle;resizable=0;points=[];autosize=1;strokeColor=none;fillColor=none;" vertex="1" parent="1">
          <mxGeometry x="245" y="105" width="90" height="30" as="geometry" />
        </mxCell>
        <mxCell id="f2vlSJQ31SEcd-mLACnH-34" value="" style="endArrow=classic;startArrow=classic;html=1;rounded=0;entryX=0;entryY=0.5;entryDx=0;entryDy=0;" edge="1" parent="1" source="f2vlSJQ31SEcd-mLACnH-30" target="f2vlSJQ31SEcd-mLACnH-6">
          <mxGeometry width="50" height="50" relative="1" as="geometry">
            <mxPoint x="360" y="300" as="sourcePoint" />
            <mxPoint x="410" y="250" as="targetPoint" />
            <Array as="points">
              <mxPoint x="400" y="120" />
            </Array>
          </mxGeometry>
        </mxCell>
        <mxCell id="f2vlSJQ31SEcd-mLACnH-35" value="ENTER NEW PASSWORD" style="text;html=1;align=center;verticalAlign=middle;resizable=0;points=[];autosize=1;strokeColor=none;fillColor=none;" vertex="1" parent="1">
          <mxGeometry x="185" y="158" width="170" height="30" as="geometry" />
        </mxCell>
        <mxCell id="f2vlSJQ31SEcd-mLACnH-36" value="" style="endArrow=classic;html=1;rounded=0;" edge="1" parent="1" source="f2vlSJQ31SEcd-mLACnH-28" target="f2vlSJQ31SEcd-mLACnH-30">
          <mxGeometry width="50" height="50" relative="1" as="geometry">
            <mxPoint x="360" y="300" as="sourcePoint" />
            <mxPoint x="410" y="250" as="targetPoint" />
          </mxGeometry>
        </mxCell>
        <mxCell id="f2vlSJQ31SEcd-mLACnH-41" value="" style="endArrow=classic;html=1;rounded=0;" edge="1" parent="1" source="f2vlSJQ31SEcd-mLACnH-30" target="f2vlSJQ31SEcd-mLACnH-35">
          <mxGeometry width="50" height="50" relative="1" as="geometry">
            <mxPoint x="360" y="300" as="sourcePoint" />
            <mxPoint x="410" y="250" as="targetPoint" />
          </mxGeometry>
        </mxCell>
        <mxCell id="f2vlSJQ31SEcd-mLACnH-42" value="" style="endArrow=classic;html=1;rounded=0;entryX=0.178;entryY=0.013;entryDx=0;entryDy=0;entryPerimeter=0;" edge="1" parent="1" source="f2vlSJQ31SEcd-mLACnH-35" target="f2vlSJQ31SEcd-mLACnH-44">
          <mxGeometry width="50" height="50" relative="1" as="geometry">
            <mxPoint x="360" y="300" as="sourcePoint" />
            <mxPoint x="410" y="250" as="targetPoint" />
          </mxGeometry>
        </mxCell>
        <mxCell id="f2vlSJQ31SEcd-mLACnH-44" value="NEW PASSWORD UPDATED" style="text;html=1;align=center;verticalAlign=middle;resizable=0;points=[];autosize=1;strokeColor=none;fillColor=none;" vertex="1" parent="1">
          <mxGeometry x="290" y="228" width="180" height="30" as="geometry" />
        </mxCell>
        <mxCell id="f2vlSJQ31SEcd-mLACnH-45" value="" style="endArrow=classic;html=1;rounded=0;entryX=0;entryY=1;entryDx=0;entryDy=0;" edge="1" parent="1" source="f2vlSJQ31SEcd-mLACnH-44" target="f2vlSJQ31SEcd-mLACnH-6">
          <mxGeometry width="50" height="50" relative="1" as="geometry">
            <mxPoint x="360" y="300" as="sourcePoint" />
            <mxPoint x="440" y="130" as="targetPoint" />
          </mxGeometry>
        </mxCell>
      </root>
    </mxGraphModel>
  </diagram>
</mxfile>
